HIERARCHY
ROOT Hips
{
	OFFSET 0.000000 0.000000 0.000000 
	CHANNELS 6 Xposition Yposition Zposition Zrotation Yrotation Xrotation
	JOINT LeftUpLeg
	{
		OFFSET 1.363060 -1.794630 0.839290 
		CHANNELS 3 Zrotation Yrotation Xrotation
		JOINT LeftLeg
		{
			OFFSET 2.448110 -6.726130 0.000000 
			CHANNELS 3 Zrotation Yrotation Xrotation
			JOINT LeftFoot
			{
				OFFSET 2.562200 -7.039590 0.000000 
				CHANNELS 3 Zrotation Yrotation Xrotation
				JOINT LeftToeBase
				{
					OFFSET 0.157640 -0.433110 2.322550 
					CHANNELS 3 Zrotation Yrotation Xrotation
					End Site
					{
						OFFSET 0.000000 0.000000 0.000000 
					}
				}
			}
		}
	}
	JOINT RightUpLeg
	{
		OFFSET -1.305520 -1.794630 0.839290 
		CHANNELS 3 Zrotation Yrotation Xrotation
		JOINT RightLeg
		{
			OFFSET -2.542530 -6.985550 0.000000 
			CHANNELS 3 Zrotation Yrotation Xrotation
			JOINT RightFoot
			{
				OFFSET -2.568260 -7.056230 0.000000 
				CHANNELS 3 Zrotation Yrotation Xrotation
				JOINT RightToeBase
				{
					OFFSET -0.164730 -0.452590 2.363150 
					CHANNELS 3 Zrotation Yrotation Xrotation
					End Site
					{
						OFFSET 0.000000 0.000000 0.000000 
					}
				}
			}
		}
	}
	JOINT Spine
	{
		OFFSET 0.028270 2.035590 -0.193380 
		CHANNELS 3 Zrotation Yrotation Xrotation
		JOINT Spine1
		{
			OFFSET 0.056720 2.048850 -0.042750 
			CHANNELS 3 Zrotation Yrotation Xrotation
			JOINT Neck1
			{
				OFFSET -0.054170 1.746240 0.172020 
				CHANNELS 3 Zrotation Yrotation Xrotation
				JOINT Head
				{
					OFFSET 0.104070 1.761360 -0.123970 
					CHANNELS 3 Zrotation Yrotation Xrotation
					End Site
					{
						OFFSET 0.000000 0.000000 0.000000 
					}
				}
			}
			JOINT LeftArm
			{
				OFFSET 3.362410 1.200890 -0.311210 
				CHANNELS 3 Zrotation Yrotation Xrotation
				JOINT LeftForeArm
				{
					OFFSET 4.983000 -0.000000 -0.000000 
					CHANNELS 3 Zrotation Yrotation Xrotation
					JOINT LeftHand
					{
						OFFSET 3.483560 -0.000000 -0.000000 
						CHANNELS 3 Zrotation Yrotation Xrotation
						JOINT LeftHandIndex1
						{
							OFFSET 0.715260 -0.000000 -0.000000 
							CHANNELS 3 Zrotation Yrotation Xrotation
							End Site
							{
								OFFSET 0.000000 0.000000 0.000000 
							}
						}
					}
				}
			}
			JOINT RightArm
			{
				OFFSET -3.136600 1.374050 -0.404650 
				CHANNELS 3 Zrotation Yrotation Xrotation
				JOINT RightForeArm
				{
					OFFSET -5.241900 -0.000000 -0.000000 
					CHANNELS 3 Zrotation Yrotation Xrotation
					JOINT RightHand
					{
						OFFSET -3.444170 -0.000000 -0.000000 
						CHANNELS 3 Zrotation Yrotation Xrotation
						JOINT RightHandIndex1
						{
							OFFSET -0.622530 -0.000000 -0.000000 
							CHANNELS 3 Zrotation Yrotation Xrotation
							End Site
							{
								OFFSET 0.000000 0.000000 0.000000 
							}
						}
					}
				}
			}
		}
	}
}
MOTION
Frames: 15
Frame Time: 0.041667
0.082154 16.817086 -3.556434 0.518524 6.910663 34.535271 -3.864617 -13.992086 -66.736405 1.818334 11.934893 30.614480 0.327651 -12.543979 7.742968 0.187600 -2.789500 -7.693300 15.956406 5.076704 -71.625941 -8.193543 -13.765292 50.425647 -0.238420 -0.093915 -9.074680 -0.057200 -1.542900 4.244000 6.035694 5.352312 26.991890 3.205715 2.460226 -2.944309 -5.753554 -3.761797 9.465447 -3.427300 -2.852600 8.338300 -81.156424 -23.263793 74.916872 78.443077 -62.930650 -49.521954 0.810905 0.447488 -3.196437 -7.125000 0.000000 0.000000 47.531039 86.528793 4.365623 -10.587915 24.107402 -1.025906 -0.956539 1.379794 -6.827891 7.125000 0.000000 0.000000 
0.121698 16.796127 -3.531521 0.636674 6.886682 35.107091 -4.204840 -13.981372 -67.605717 1.911572 12.097162 31.104626 0.297261 -12.925616 7.803672 0.199100 -2.873300 -7.926100 15.473424 5.244102 -72.304992 -8.297431 -13.850183 50.839493 -0.249556 -0.084712 -9.240167 -0.054100 -1.500600 4.127300 6.716593 5.252767 27.412457 3.609041 2.494440 -2.988497 -5.616004 -3.686277 9.155316 -3.261800 -2.877100 8.289100 -81.609199 -23.316872 74.406167 79.687204 -63.079964 -50.499316 0.805646 0.431346 -2.872053 -7.125000 0.000000 0.000000 41.409734 86.754108 -0.091843 -11.560284 23.444905 -1.202052 -0.934081 1.171278 -7.358488 7.125000 0.000000 0.000000 
0.162330 16.770522 -3.506904 0.795122 6.868611 35.644977 -4.680220 -13.946935 -68.497650 2.009876 12.264981 31.619107 0.262167 -13.344171 7.809504 0.233800 -3.112200 -8.591300 15.096945 5.230581 -73.038985 -8.404460 -13.938381 51.263483 -0.269582 0.029876 -9.376436 -0.040900 -1.306100 3.591400 7.354172 5.155741 27.789935 4.028220 2.538792 -3.061946 -5.376124 -3.627444 8.814425 -3.043100 -2.899800 8.229800 -82.083672 -23.363912 73.897751 80.992636 -63.197277 -51.538614 0.806743 0.417080 -2.425035 -7.125000 0.000000 0.000000 35.470884 86.566339 -4.504457 -12.242502 22.984175 -1.351340 -0.932719 0.995836 -8.191793 7.125000 0.000000 0.000000 
0.203555 16.748081 -3.481398 1.023805 6.926933 36.121157 -5.087178 -14.102446 -69.278153 2.113327 12.437731 32.152002 0.229674 -13.678945 7.823657 0.199000 -2.872800 -7.924900 14.757271 5.025156 -73.747700 -8.512509 -14.030798 51.694656 -0.288701 0.164225 -9.465005 -0.025800 -1.037400 2.851800 7.979564 5.023034 28.147713 4.460311 2.566543 -3.115495 -5.200883 -3.577871 8.537278 -2.852600 -2.932100 8.222100 -82.568227 -23.339210 73.405607 82.440008 -63.292908 -52.690805 0.805206 0.426730 -1.494934 -7.125000 0.000000 0.000000 29.344946 86.245029 -9.479500 -12.775411 22.713242 -1.497406 -0.932676 0.847516 -8.798862 7.125000 0.000000 0.000000 
0.241518 16.726134 -3.453717 1.241432 6.938379 36.569839 -5.446949 -14.235450 -69.989878 2.217010 12.605430 32.677252 0.199540 -13.989447 7.962674 0.131300 -2.335700 -6.434400 14.323729 4.947376 -74.377660 -8.621805 -14.121353 52.128181 -0.296491 0.205170 -9.517691 -0.021000 -0.934800 2.569500 8.535507 4.921518 28.488458 4.899195 2.599330 -3.146289 -5.168757 -3.520508 8.257531 -2.726900 -2.965200 8.221700 -82.953531 -23.247923 72.918482 84.185678 -63.372516 -54.082997 0.803788 0.447280 -0.475028 -7.125000 0.000000 0.000000 23.052262 85.921979 -14.862186 -13.169742 22.520394 -1.620047 -0.931295 0.730650 -9.183293 7.125000 0.000000 0.000000 
0.277602 16.705472 -3.426530 1.431081 6.952775 37.048981 -5.837872 -14.285029 -70.727998 2.320207 12.767418 33.187803 0.161267 -14.411791 8.029568 0.106000 -2.099300 -5.780100 13.872582 4.940475 -75.011457 -8.731947 -14.208542 52.559260 -0.319464 0.344878 -9.665093 -0.037900 -1.257400 3.457200 9.047724 4.826634 28.792700 5.320366 2.625356 -3.151263 -5.118994 -3.438410 7.838096 -2.582100 -2.979900 8.159100 -83.342219 -23.143541 72.361207 85.926806 -63.420685 -55.475531 0.804319 0.452870 0.160540 -7.125000 0.000000 0.000000 16.977293 85.633331 -20.029591 -13.433590 22.344653 -1.704717 -0.940753 0.643620 -9.363651 7.125000 0.000000 0.000000 
0.313192 16.682536 -3.396180 1.737001 7.001689 37.637760 -6.281389 -14.444080 -71.519783 2.418137 12.922973 33.669732 0.121226 -14.803710 7.926234 0.102700 -2.066400 -5.689100 13.367685 4.804698 -75.787710 -8.844422 -14.298016 53.000773 -0.358866 0.587572 -9.914203 -0.065900 -1.655800 4.555300 9.524378 4.675840 29.119883 5.794277 2.615437 -3.010097 -4.930745 -3.367031 7.507754 -2.382600 -2.995100 8.157800 -83.833794 -23.203006 71.769431 87.041131 -63.435364 -56.368608 0.806483 0.432130 0.730526 -7.125000 0.000000 0.000000 10.956001 85.348084 -25.331713 -13.682014 22.281424 -1.788031 -0.954394 0.572295 -9.203664 7.125000 0.000000 0.000000 
0.346805 16.654756 -3.360590 2.097701 7.010572 38.223056 -6.800904 -14.595308 -72.290037 2.509972 13.068202 34.122816 0.083123 -15.160362 7.859115 0.081600 -1.842800 -5.071500 12.815798 4.667752 -76.541029 -8.958950 -14.390553 53.453960 -0.377511 0.593097 -10.192689 -0.043200 -1.342000 3.690400 9.996980 4.546558 29.483659 6.327610 2.608946 -2.791302 -4.533249 -3.407749 7.304089 -2.113000 -3.051900 8.220200 -84.367592 -23.385813 71.320066 87.975495 -63.438448 -57.119758 0.809696 0.413032 1.130522 -7.125000 0.000000 0.000000 4.598223 84.978882 -31.084636 -13.913937 22.273825 -1.873953 -0.959299 0.509146 -8.998881 7.125000 0.000000 0.000000 
0.378737 16.631622 -3.325889 2.379106 7.086297 38.696014 -7.338689 -14.658276 -72.983873 2.604183 13.207532 34.571870 0.030117 -15.725728 7.881761 0.058700 -1.563300 -4.300400 12.419860 4.496257 -77.164230 -9.079775 -14.486887 53.925895 -0.392117 0.577751 -10.436288 -0.017900 -0.864800 2.376900 10.533460 4.456001 29.786837 6.804831 2.623224 -2.678255 -4.097671 -3.483275 6.968097 -1.819000 -3.116000 8.211100 -84.952793 -23.488541 70.991493 89.146452 -63.431010 -58.062385 0.812803 0.409509 1.319760 -7.125000 0.000000 0.000000 -1.687640 84.527693 -36.724140 -14.076410 22.225504 -1.937256 -0.965018 0.457989 -9.016970 7.125000 0.000000 0.000000 
0.411164 16.609972 -3.293068 2.656669 7.295074 39.129985 -7.760178 -14.859609 -73.637461 2.708355 13.357423 35.054897 -0.028274 -16.311568 7.908721 0.047300 -1.403600 -3.860200 12.119006 4.179955 -77.775148 -9.204813 -14.586061 54.409786 -0.418299 0.707206 -10.638232 -0.014400 -0.773600 2.126000 11.057687 4.303451 30.046234 7.207491 2.601614 -2.573551 -3.710470 -3.500637 6.733770 -1.548100 -3.157600 8.255000 -85.561555 -23.549739 70.608312 90.548349 -63.405853 -59.188742 0.812936 0.411837 1.511087 -7.125000 0.000000 0.000000 -7.472523 84.061020 -41.843010 -14.263210 22.270023 -2.006661 -0.977537 0.413402 -9.221394 7.125000 0.000000 0.000000 
0.448336 16.579522 -3.261135 2.888631 7.468415 39.577314 -8.012755 -15.147175 -74.329805 2.823105 13.525314 35.587199 -0.066221 -16.604879 7.904333 0.032300 -1.160800 -3.191400 11.823887 3.876964 -78.425334 -9.332166 -14.683405 54.896157 -0.445770 0.885580 -10.787474 -0.015100 -0.792500 2.178000 11.511321 4.134626 30.308660 7.549629 2.560096 -2.412993 -3.338245 -3.521964 6.714252 -1.295500 -3.209200 8.402100 -86.220827 -23.691003 70.240014 91.840325 -63.366899 -60.227213 0.814991 0.414621 1.839296 -7.125000 0.000000 0.000000 -12.875534 83.594703 -46.714563 -14.416154 22.297125 -2.063942 -0.987489 0.379084 -9.174792 7.125000 0.000000 0.000000 
0.489462 16.543735 -3.231180 2.994639 7.508137 40.064881 -8.156467 -15.317587 -75.134168 2.948029 13.706817 36.160769 -0.091229 -16.739833 7.874484 0.012500 -0.722500 -1.985600 11.597931 3.711471 -79.139521 -9.460106 -14.773901 55.373363 -0.478381 1.120218 -10.931886 -0.013800 -0.758800 2.085300 11.896539 4.036824 30.572623 7.814202 2.547142 -2.231293 -3.027735 -3.568112 6.621396 -1.071400 -3.271100 8.507900 -86.912871 -23.887743 70.002029 92.686259 -63.330447 -60.911362 0.822995 0.409259 2.469103 -7.125000 0.000000 0.000000 -18.018306 83.085964 -51.391633 -14.501555 22.235530 -2.097135 -0.997839 0.355018 -8.973167 7.125000 0.000000 0.000000 
0.527622 16.511407 -3.200731 3.073939 7.582662 40.540921 -8.373353 -15.387099 -75.947368 3.081076 13.890755 36.755999 -0.135183 -17.094403 7.836198 0.003400 -0.376700 -1.034900 11.459714 3.544654 -79.833977 -9.583287 -14.859670 55.828397 -0.515949 1.356119 -11.146880 -0.007800 -0.570100 1.566600 12.321070 3.988133 30.850433 8.110576 2.561402 -2.005640 -2.772662 -3.644088 6.383091 -0.880200 -3.338400 8.541200 -87.622054 -24.064912 69.864128 93.483605 -63.287692 -61.563318 0.832023 0.396821 3.262497 -7.125000 0.000000 0.000000 -22.938574 82.357413 -55.534057 -14.645951 22.263125 -2.152814 -1.012688 0.322960 -9.126733 7.125000 0.000000 0.000000 
0.562619 16.483429 -3.167810 3.197846 7.739713 40.977576 -8.638999 -15.504670 -76.669728 3.216960 14.070429 37.348803 -0.192842 -17.592426 7.695501 0.002200 -0.300300 -0.825200 11.333272 3.313438 -80.451801 -9.701335 -14.944589 56.267557 -0.544900 1.499319 -11.364065 -0.001700 -0.267400 0.734800 12.914406 4.002761 31.165365 8.568248 2.616758 -1.702275 -2.560434 -3.827645 6.028707 -0.711100 -3.452600 8.519400 -88.522608 -24.330536 69.978623 94.415248 -63.232360 -62.335816 0.841182 0.386914 3.700142 -7.125000 0.000000 0.000000 -27.759286 81.136495 -58.928909 -14.821444 22.305040 -2.223685 -1.035886 0.272474 -9.954553 7.125000 0.000000 0.000000 
0.595243 16.458912 -3.133703 3.336504 7.852184 41.384223 -8.841919 -15.671320 -77.311607 3.350436 14.245185 37.926695 -0.236877 -17.940300 7.486189 0.001500 -0.248100 -0.681600 11.161145 3.112017 -80.999320 -9.815702 -15.025410 56.692565 -0.564715 1.585193 -11.527777 -0.000300 -0.114200 0.313700 13.350776 3.922171 31.417241 8.921593 2.599430 -1.482525 -2.038914 -3.973484 5.851672 -0.414000 -3.537600 8.593600 -89.326514 -24.520372 69.892132 95.595870 -63.152579 -63.299688 0.845929 0.391264 3.775737 -7.125000 0.000000 0.000000 -31.426829 80.321215 -61.745794 -14.969553 22.359208 -2.282136 -1.051286 0.243370 -10.218818 7.125000 0.000000 0.000000 
